# Blender v2.79 (sub 0) OBJ File: 'flywheel.blend'
# www.blender.org
mtllib flywheel_table.mtl
o table
v 1.000000 0.000000 0.000000
v 1.000000 0.000000 1.000000
v 0.000000 0.000000 1.000000
v 0.000000 0.000000 0.000000
v 1.000000 0.250000 0.000000
v 1.000000 0.250000 1.000000
v 0.000000 0.250000 1.000000
v 0.000000 0.250000 0.000000
v 0.375000 0.250000 0.000000
v 0.375000 0.250000 0.000000
v 0.875000 0.000000 1.000000
v 0.125000 0.000000 1.000000
v 0.875000 0.000000 0.000000
v 0.125000 0.000000 0.000000
v 0.125000 0.125000 1.000000
v 0.875000 0.125000 1.000000
v 0.125000 0.125000 0.000000
v 0.875000 0.125000 0.000000
v 0.000000 0.000000 0.875000
v 0.000000 0.000000 0.125000
v 0.875000 0.000000 0.875000
v 0.875000 0.000000 0.125000
v 0.125000 0.000000 0.875000
v 0.125000 0.000000 0.125000
v 1.000000 0.000000 0.125000
v 1.000000 0.000000 0.875000
v 1.000000 0.125000 0.875000
v 1.000000 0.125000 0.125000
v 0.000000 0.125000 0.875000
v 0.000000 0.125000 0.125000
v 0.875000 0.125000 0.875000
v 0.875000 0.125000 0.125000
v 0.125000 0.125000 0.875000
v 0.125000 0.125000 0.125000
vt 1.000000 0.937500
vt 0.937500 1.000000
vt 1.000000 1.000000
vt 0.250000 1.000000
vt 0.250000 0.500000
vt 0.312500 0.937500
vt 0.375000 1.000000
vt 0.375000 0.500000
vt 0.437500 0.937500
vt 0.125000 1.000000
vt 0.125000 0.500000
vt 0.187500 0.937500
vt 0.687500 0.500000
vt 0.500000 0.000000
vt 1.000000 0.000000
vt 0.375000 0.500000
vt 0.437500 0.437500
vt 0.500000 0.500000
vt 0.000000 0.000000
vt 0.000000 0.000000
vt 0.000000 0.000000
vt 0.437500 0.062500
vt 0.500000 0.125000
vt 0.437500 0.125000
vt 0.312500 0.937500
vt 0.375000 0.875000
vt 0.375000 0.937500
vt 0.562500 0.937500
vt 0.500000 1.000000
vt 0.562500 1.000000
vt 0.250000 0.937500
vt 0.187500 0.875000
vt 0.250000 0.875000
vt 0.562500 0.562500
vt 0.500000 0.500000
vt 0.500000 0.562500
vt 0.437500 0.875000
vt 0.500000 0.937500
vt 0.312500 0.625000
vt 0.375000 0.562500
vt 0.375000 0.625000
vt 1.000000 0.562500
vt 0.937500 0.500000
vt 0.937500 0.562500
vt 0.500000 0.562500
vt 0.437500 0.625000
vt 0.437500 0.562500
vt 0.250000 0.562500
vt 0.187500 0.625000
vt 0.187500 0.562500
vt 0.437500 0.375000
vt 0.500000 0.437500
vt 0.437500 0.437500
vt 0.937500 0.937500
vt 0.937500 0.562500
vt 0.562500 0.562500
vt 0.937500 0.937500
vt 0.375000 0.937500
vt 0.375000 1.000000
vt 0.375000 0.500000
vt 0.312500 0.562500
vt 0.375000 0.562500
vt 0.500000 1.000000
vt 0.250000 0.937500
vt 0.250000 1.000000
vt 0.250000 0.500000
vt 0.187500 0.562500
vt 0.250000 0.562500
vt 1.000000 0.500000
vt 0.500000 0.500000
vt 0.375000 0.312500
vt 0.375000 0.312500
vt 0.375000 0.000000
vt 0.500000 0.000000
vt 0.500000 0.062500
vt 0.500000 0.437500
vt 0.312500 0.875000
vt 0.500000 0.937500
vt 0.187500 0.937500
vt 0.562500 0.500000
vt 0.500000 0.875000
vt 0.312500 0.562500
vt 1.000000 0.500000
vt 0.500000 0.625000
vt 0.250000 0.625000
vt 0.500000 0.375000
vt 0.500000 0.562500
vt 0.500000 0.937500
vt 0.562500 0.937500
vt 0.562500 1.000000
vt 0.937500 1.000000
vt 0.937500 0.500000
vt 0.562500 0.500000
vt 1.000000 0.937500
vt 1.000000 0.562500
vn 0.0000 -1.0000 0.0000
vn 1.0000 0.0000 0.0000
vn 0.0000 0.0000 1.0000
vn -1.0000 0.0000 0.0000
vn 0.0000 1.0000 0.0000
vn 0.0000 0.0000 -1.0000
usemtl flywheel
s off
f 25/1/1 13/2/1 1/3/1
f 5/4/2 6/5/2 28/6/2
f 6/7/3 7/8/3 16/9/3
f 7/10/4 8/11/4 29/12/4
f 9/13/5 7/14/5 6/15/5
f 8/16/6 17/17/6 4/18/6
f 5/19/3 10/20/3 9/21/3
f 18/22/4 22/23/4 32/24/4
f 25/25/3 32/26/3 22/27/3
f 24/28/1 4/29/1 14/30/1
f 23/31/6 29/32/6 33/33/6
f 23/34/1 3/35/1 19/36/1
f 31/37/4 11/38/4 16/9/4
f 27/39/6 21/40/6 31/41/6
f 26/42/1 11/43/1 21/44/1
f 12/45/2 33/46/2 15/47/2
f 30/48/3 24/49/3 34/50/3
f 14/51/2 34/52/2 24/53/2
f 32/54/1 31/55/1 33/56/1
f 25/1/1 22/57/1 13/2/1
f 25/58/2 1/59/2 28/6/2
f 6/5/2 2/60/2 27/61/2
f 2/60/2 26/62/2 27/61/2
f 28/6/2 1/59/2 5/4/2
f 6/5/2 27/61/2 28/6/2
f 11/38/3 2/63/3 16/9/3
f 7/8/3 3/35/3 15/47/3
f 3/35/3 12/45/3 15/47/3
f 16/9/3 2/63/3 6/7/3
f 7/8/3 15/47/3 16/9/3
f 19/64/4 3/65/4 29/12/4
f 8/11/4 4/66/4 30/67/4
f 4/66/4 20/68/4 30/67/4
f 29/12/4 3/65/4 7/10/4
f 8/11/4 30/67/4 29/12/4
f 6/15/5 5/69/5 9/13/5
f 9/13/5 8/70/5 7/14/5
f 8/16/3 9/71/3 10/72/3
f 5/73/6 1/74/6 18/22/6
f 1/74/6 13/75/6 18/22/6
f 8/16/6 10/72/6 17/17/6
f 5/73/6 18/22/6 10/72/6
f 17/17/6 14/76/6 4/18/6
f 10/72/6 18/22/6 17/17/6
f 18/22/4 13/75/4 22/23/4
f 25/25/3 28/77/3 32/26/3
f 24/28/1 20/78/1 4/29/1
f 23/31/6 19/79/6 29/32/6
f 23/34/1 12/80/1 3/35/1
f 31/37/4 21/81/4 11/38/4
f 27/39/6 26/82/6 21/40/6
f 26/42/1 2/83/1 11/43/1
f 12/45/2 23/84/2 33/46/2
f 30/48/3 20/85/3 24/49/3
f 14/51/2 17/86/2 34/52/2
f 33/56/1 29/87/1 30/88/1
f 34/89/1 17/90/1 18/91/1
f 33/56/1 30/88/1 34/89/1
f 16/92/1 15/93/1 33/56/1
f 28/94/1 27/95/1 31/55/1
f 31/55/1 16/92/1 33/56/1
f 33/56/1 34/89/1 32/54/1
f 32/54/1 28/94/1 31/55/1
f 34/89/1 18/91/1 32/54/1
