# Blender v2.79 (sub 0) OBJ File: 'flywheel.blend'
# www.blender.org
mtllib flywheel_shaft.mtl
o shaft
v 0.375000 1.000000 0.625000
v 0.375000 1.000000 0.375000
v 0.625000 1.000000 0.625000
v 0.625000 1.000000 0.375000
v 0.375000 0.000000 0.625000
v 0.375000 0.000000 0.375000
v 0.625000 0.000000 0.625000
v 0.625000 0.000000 0.375000
v 0.625000 0.375000 0.375000
v 0.625000 0.312500 0.375000
v 0.375000 0.375000 0.625000
v 0.375000 0.312500 0.625000
v 0.375000 0.375000 0.375000
v 0.375000 0.312500 0.375000
v 0.625000 0.375000 0.625000
v 0.625000 0.312500 0.625000
v 0.625000 0.375000 0.312500
v 0.312500 0.312500 0.625000
v 0.312500 0.375000 0.375000
v 0.312500 0.312500 0.375000
v 0.312500 0.375000 0.375000
v 0.312500 0.312500 0.375000
v 0.312500 0.375000 0.312500
v 0.312500 0.312500 0.312500
v 0.312500 0.375000 0.687500
v 0.312500 0.312500 0.687500
v 0.687500 0.375000 0.312500
v 0.687500 0.312500 0.312500
v 0.687500 0.375000 0.687500
v 0.687500 0.312500 0.687500
vt 0.125000 0.656250
vt 0.000000 0.500000
vt 0.125000 0.500000
vt -0.000000 0.687500
vt 0.125000 1.000000
vt -0.000000 1.000000
vt 0.125000 0.656250
vt 0.000000 0.500000
vt 0.125000 0.500000
vt 0.125000 0.375000
vt 0.000000 0.500000
vt 0.000000 0.375000
vt 0.000000 0.500000
vt 0.125000 0.656250
vt 0.000000 0.656250
vt 0.125000 0.656250
vt 0.000000 0.500000
vt 0.125000 0.500000
vt 0.125000 0.500000
vt -0.000000 0.375000
vt 0.125000 0.375000
vt 0.125000 0.687500
vt 0.000000 1.000000
vt 0.000000 0.687500
vt 0.125000 0.687500
vt 0.000000 1.000000
vt 0.000000 0.687500
vt 0.125000 0.687500
vt 0.000000 1.000000
vt 0.000000 0.687500
vt 0.312500 0.468750
vt 0.156250 0.500000
vt 0.125000 0.468750
vt 0.312500 0.500000
vt 0.125000 0.500000
vt 0.281250 0.468750
vt 0.281250 0.250000
vt 0.156250 0.281250
vt 0.156250 0.250000
vt 0.125000 0.500000
vt 0.156250 0.468750
vt 0.156250 0.500000
vt 0.125000 0.281250
vt 0.156250 0.312500
vt 0.125000 0.437500
vt 0.125000 0.468750
vt 0.312500 0.500000
vt 0.125000 0.500000
vt 0.281250 0.125000
vt 0.125000 0.093750
vt 0.312500 0.093750
vt 0.312500 0.281250
vt 0.312500 0.468750
vt 0.281250 0.437500
vt 0.125000 0.468750
vt 0.312500 0.500000
vt 0.125000 0.500000
vt 0.000000 0.656250
vt 0.125000 0.687500
vt 0.000000 0.656250
vt 0.125000 0.500000
vt 0.125000 0.500000
vt 0.000000 0.656250
vt -0.000000 0.500000
vt 0.125000 1.000000
vt 0.125000 1.000000
vt 0.125000 1.000000
vt 0.125000 0.500000
vt 0.312500 0.500000
vt 0.125000 0.468750
vt 0.312500 0.468750
vt 0.281250 0.281250
vt 0.125000 0.468750
vt 0.156250 0.437500
vt 0.156250 0.281250
vt 0.312500 0.468750
vt 0.156250 0.125000
vt 0.125000 0.281250
vt 0.156250 0.281250
vt 0.312500 0.281250
vt 0.125000 0.468750
vt 0.156250 0.281250
vt 0.281250 0.312500
vt 0.312500 0.468750
vn -1.0000 0.0000 0.0000
vn 0.0000 0.0000 1.0000
vn 0.0000 0.0000 -1.0000
vn 0.0000 1.0000 0.0000
vn 1.0000 0.0000 0.0000
vn 0.0000 -1.0000 0.0000
usemtl flywheel
s off
f 6/1/1 12/2/1 14/3/1
f 11/4/2 3/5/2 1/6/2
f 8/7/3 14/8/3 10/9/3
f 4/10/4 1/11/4 3/12/4
f 7/13/5 10/14/5 16/15/5
f 5/16/2 16/17/2 12/18/2
f 6/19/6 7/20/6 5/21/6
f 11/22/1 2/23/1 13/24/1
f 9/25/5 3/26/5 15/27/5
f 13/28/3 4/29/3 9/30/3
f 24/31/3 17/32/3 28/33/3
f 25/34/1 19/35/1 18/36/1
f 12/37/6 20/38/6 14/39/6
f 21/40/1 24/41/1 22/42/1
f 23/43/4 13/44/4 17/45/4
f 26/46/2 29/47/2 25/48/2
f 16/49/6 28/50/6 30/51/6
f 25/52/4 29/53/4 15/54/4
f 30/55/5 27/56/5 29/57/5
f 6/1/1 5/58/1 12/2/1
f 11/4/2 15/59/2 3/5/2
f 8/7/3 6/60/3 14/8/3
f 4/10/4 2/61/4 1/11/4
f 7/13/5 8/62/5 10/14/5
f 5/16/2 7/63/2 16/17/2
f 6/19/6 8/64/6 7/20/6
f 11/22/1 1/65/1 2/23/1
f 9/25/5 4/66/5 3/26/5
f 13/28/3 2/67/3 4/29/3
f 27/68/3 28/33/3 17/32/3
f 24/31/3 23/69/3 17/32/3
f 20/70/1 18/36/1 19/35/1
f 26/71/1 25/34/1 18/36/1
f 12/37/6 18/72/6 20/38/6
f 21/40/1 23/73/1 24/41/1
f 9/74/4 17/45/4 13/44/4
f 23/43/4 21/75/4 13/44/4
f 26/46/2 30/76/2 29/47/2
f 10/77/6 14/39/6 24/78/6
f 22/79/6 24/78/6 14/39/6
f 30/51/6 26/80/6 16/49/6
f 18/72/6 12/37/6 26/80/6
f 10/77/6 24/78/6 28/50/6
f 26/80/6 12/37/6 16/49/6
f 16/49/6 10/77/6 28/50/6
f 29/53/4 27/81/4 15/54/4
f 17/45/4 9/74/4 27/81/4
f 13/44/4 19/82/4 11/83/4
f 11/83/4 19/82/4 25/52/4
f 27/81/4 9/74/4 15/54/4
f 15/54/4 11/83/4 25/52/4
f 30/55/5 28/84/5 27/56/5
