# Blender v2.77 (sub 0) OBJ File: ''
# www.blender.org
o gear
v 0.811801 0.000000 0.291661
v 0.708339 0.000000 0.188199
v 0.708339 0.125000 0.188199
v 0.811801 0.125000 0.291661
v 0.756174 0.000000 0.072714
v 0.620995 0.000000 0.016721
v 0.620995 0.125000 0.016721
v 0.756174 0.125000 0.072714
v 0.573159 0.000000 0.132206
v 0.426841 0.000000 0.132206
v 0.426841 0.125000 0.132206
v 0.573159 0.125000 0.132206
v 0.379006 0.000000 0.016721
v 0.243826 0.000000 0.072714
v 0.243826 0.125000 0.072714
v 0.379006 0.125000 0.016721
v 0.291661 0.000000 0.188199
v 0.188199 0.000000 0.291661
v 0.188199 0.125000 0.291661
v 0.291661 0.125000 0.188199
v 0.072714 0.000000 0.243826
v 0.016721 0.000000 0.379005
v 0.016721 0.125000 0.379005
v 0.072714 0.125000 0.243826
v 0.132206 0.000000 0.426841
v 0.132205 -0.000000 0.573159
v 0.132205 0.125000 0.573159
v 0.132206 0.125000 0.426841
v 0.016721 -0.000000 0.620994
v 0.072714 -0.000000 0.756174
v 0.072714 0.125000 0.756174
v 0.016721 0.125000 0.620994
v 0.188199 -0.000000 0.708339
v 0.291661 -0.000000 0.811801
v 0.291661 0.125000 0.811801
v 0.188199 0.125000 0.708339
v 0.243826 -0.000000 0.927286
v 0.379006 -0.000000 0.983279
v 0.379006 0.125000 0.983279
v 0.243826 0.125000 0.927286
v 0.426841 -0.000000 0.867794
v 0.573159 -0.000000 0.867794
v 0.573159 0.125000 0.867794
v 0.426841 0.125000 0.867794
v 0.620994 -0.000000 0.983279
v 0.756174 -0.000000 0.927286
v 0.756174 0.125000 0.927286
v 0.620994 0.125000 0.983279
v 0.708339 -0.000000 0.811801
v 0.811801 -0.000000 0.708339
v 0.811801 0.125000 0.708339
v 0.708339 0.125000 0.811801
v 0.927286 -0.000000 0.756174
v 0.983279 -0.000000 0.620994
v 0.983279 0.125000 0.620994
v 0.927286 0.125000 0.756174
v 0.867794 -0.000000 0.573159
v 0.867794 0.000000 0.426841
v 0.867794 0.125000 0.426841
v 0.867794 0.125000 0.573159
v 0.983279 0.000000 0.379006
v 0.927286 0.000000 0.243826
v 0.927286 0.125000 0.243826
v 0.983279 0.125000 0.379006
v 0.500000 0.000000 0.500000
v 0.500000 0.125000 0.500000
vn 0.7071 0.0000 -0.7071
vn 0.3827 0.0000 -0.9239
vn 0.0000 0.0000 -1.0000
vn -0.3827 0.0000 -0.9239
vn -0.7071 0.0000 -0.7071
vn -0.9239 0.0000 -0.3827
vn -1.0000 0.0000 -0.0000
vn -0.9239 -0.0000 0.3827
vn -0.7071 -0.0000 0.7071
vn -0.3827 0.0000 0.9239
vn 0.0000 0.0000 1.0000
vn 0.3827 0.0000 0.9239
vn 0.7071 -0.0000 0.7071
vn 0.9239 0.0000 0.3827
vn 1.0000 0.0000 0.0000
vn 0.9239 -0.0000 -0.3827
vn 0.0000 -1.0000 -0.0000
vn -0.0000 1.0000 0.0000
s 1
f 2//1 4//1 1//1
f 5//2 7//2 8//2
f 10//3 12//3 9//3
f 14//4 16//4 13//4
f 18//5 20//5 17//5
f 22//6 24//6 21//6
f 26//7 28//7 25//7
f 30//8 32//8 29//8
f 34//9 36//9 33//9
f 38//10 40//10 37//10
f 42//11 44//11 41//11
f 46//12 48//12 45//12
f 50//13 52//13 49//13
f 53//14 55//14 56//14
f 58//15 60//15 57//15
f 62//16 64//16 61//16
f 2//17 1//17 65//17
f 9//17 2//17 65//17
f 10//17 9//17 65//17
f 17//17 10//17 65//17
f 18//17 17//17 65//17
f 25//17 18//17 65//17
f 26//17 25//17 65//17
f 33//17 26//17 65//17
f 34//17 33//17 65//17
f 41//17 34//17 65//17
f 42//17 41//17 65//17
f 49//17 42//17 65//17
f 50//17 49//17 65//17
f 57//17 50//17 65//17
f 58//17 57//17 65//17
f 1//17 58//17 65//17
f 4//18 3//18 66//18
f 3//18 12//18 66//18
f 12//18 11//18 66//18
f 11//18 20//18 66//18
f 20//18 19//18 66//18
f 19//18 28//18 66//18
f 28//18 27//18 66//18
f 27//18 36//18 66//18
f 36//18 35//18 66//18
f 35//18 44//18 66//18
f 44//18 43//18 66//18
f 43//18 52//18 66//18
f 52//18 51//18 66//18
f 51//18 60//18 66//18
f 60//18 59//18 66//18
f 59//18 4//18 66//18
f 2//17 6//17 5//17
f 12//6 6//6 9//6
f 3//18 7//18 12//18
f 2//14 8//14 3//14
f 10//17 14//17 13//17
f 20//8 14//8 17//8
f 11//18 15//18 20//18
f 10//16 16//16 11//16
f 18//17 22//17 21//17
f 28//10 22//10 25//10
f 19//18 23//18 28//18
f 18//2 24//2 19//2
f 26//17 30//17 29//17
f 36//12 30//12 33//12
f 27//18 31//18 36//18
f 27//4 29//4 32//4
f 41//17 37//17 34//17
f 41//14 39//14 38//14
f 44//18 40//18 39//18
f 34//6 40//6 35//6
f 42//17 46//17 45//17
f 52//16 46//16 49//16
f 43//18 47//18 52//18
f 42//8 48//8 43//8
f 57//17 53//17 50//17
f 57//2 55//2 54//2
f 60//18 56//18 55//18
f 50//10 56//10 51//10
f 58//17 62//17 61//17
f 4//4 62//4 1//4
f 59//18 63//18 4//18
f 58//12 64//12 59//12
f 2//1 3//1 4//1
f 5//2 6//2 7//2
f 10//3 11//3 12//3
f 14//4 15//4 16//4
f 18//5 19//5 20//5
f 22//6 23//6 24//6
f 26//7 27//7 28//7
f 30//8 31//8 32//8
f 34//9 35//9 36//9
f 38//10 39//10 40//10
f 42//11 43//11 44//11
f 46//12 47//12 48//12
f 50//13 51//13 52//13
f 53//14 54//14 55//14
f 58//15 59//15 60//15
f 62//16 63//16 64//16
f 2//17 9//17 6//17
f 12//6 7//6 6//6
f 3//18 8//18 7//18
f 2//14 5//14 8//14
f 10//17 17//17 14//17
f 20//8 15//8 14//8
f 11//18 16//18 15//18
f 10//16 13//16 16//16
f 18//17 25//17 22//17
f 28//10 23//10 22//10
f 19//18 24//18 23//18
f 18//2 21//2 24//2
f 26//17 33//17 30//17
f 36//12 31//12 30//12
f 27//18 32//18 31//18
f 27//4 26//4 29//4
f 41//17 38//17 37//17
f 41//14 44//14 39//14
f 44//18 35//18 40//18
f 34//6 37//6 40//6
f 42//17 49//17 46//17
f 52//16 47//16 46//16
f 43//18 48//18 47//18
f 42//8 45//8 48//8
f 57//17 54//17 53//17
f 57//2 60//2 55//2
f 60//18 51//18 56//18
f 50//10 53//10 56//10
f 58//17 1//17 62//17
f 4//4 63//4 62//4
f 59//18 64//18 63//18
f 58//12 61//12 64//12
